<svg width="322" height="76" viewBox="0 0 322 76" fill="none" xmlns="http://www.w3.org/2000/svg" role="img" aria-label="RestroOne logo">
  <rect x="2" y="2" width="72" height="72" rx="22" fill="#0F172A"/>
  <rect x="2" y="2" width="72" height="72" rx="22" stroke="#14B8A6" stroke-width="4"/>
  <path d="M22 47.5C22 38.94 28.94 32 37.5 32H47.5C50.54 32 53 34.46 53 37.5C53 40.54 50.54 43 47.5 43H38.5C35.46 43 33 45.46 33 48.5V55" stroke="#F8FAFC" stroke-width="6" stroke-linecap="round" stroke-linejoin="round"/>
  <path d="M23 25C27.21 18.8 34.22 15 42 15C49.79 15 56.79 18.8 61 25" stroke="#FB7185" stroke-width="6" stroke-linecap="round"/>
  <circle cx="56" cy="50" r="6" fill="#FBBF24"/>
  <text x="92" y="35" fill="#0F172A" font-family="Outfit, Inter, Arial, sans-serif" font-size="30" font-weight="800" letter-spacing="0">Restro</text>
  <text x="190" y="35" fill="#14B8A6" font-family="Outfit, Inter, Arial, sans-serif" font-size="30" font-weight="800" letter-spacing="0">One</text>
  <text x="94" y="56" fill="#64748B" font-family="Outfit, Inter, Arial, sans-serif" font-size="13" font-weight="600" letter-spacing="1.8">SINGLE VENDOR DELIVERY</text>
</svg>
